<svg width="34" height="36" viewBox="0 0 34 36" fill="none" xmlns="http://www.w3.org/2000/svg">
<g clip-path="url(#clip0_27_912)">
<path d="M8.36719 17.1172C7.87891 17.6055 7.87891 18.3984 8.36719 18.8867L14.6172 25.1367C15.1055 25.625 15.8984 25.625 16.3867 25.1367C16.875 24.6484 16.875 23.8555 16.3867 23.3672L12.2656 19.25H24.25C24.9414 19.25 25.5 18.6914 25.5 18C25.5 17.3086 24.9414 16.75 24.25 16.75H12.2695L16.3828 12.6328C16.8711 12.1445 16.8711 11.3516 16.3828 10.8633C15.8945 10.375 15.1016 10.375 14.6133 10.8633L8.36328 17.1133L8.36719 17.1172Z" fill="#809EB8"/>
</g>
<defs>
<clipPath id="clip0_27_912">
<path d="M8 8H25.5V28H8V8Z" fill="white"/>
</clipPath>
</defs>
</svg>
