<svg width="21" height="22" viewBox="0 0 21 22" fill="none" xmlns="http://www.w3.org/2000/svg">
<path d="M10.25 0C10.4465 0 10.6429 0.0427083 10.8223 0.123854L18.8643 3.53624C19.8038 3.93343 20.5043 4.8602 20.5 5.97916C20.4786 10.2158 18.7361 17.9674 11.3775 21.4908C10.6643 21.8325 9.83573 21.8325 9.1225 21.4908C1.76387 17.9674 0.0213736 10.2158 1.94258e-05 5.97916C-0.0042514 4.8602 0.696164 3.93343 1.63575 3.53624L9.68198 0.123854C9.85708 0.0427083 10.0535 0 10.25 0ZM10.25 2.85291V18.9966C16.1437 16.1437 17.7282 9.82717 17.7667 6.03895L10.25 2.85291Z" fill="#99BACB"/>
</svg>
