<svg width="72" height="72" viewBox="0 0 72 72" fill="none" xmlns="http://www.w3.org/2000/svg">
<path d="M16.5 16.5L25.5 25.5M46.5 46.5L55.5 55.5M55.5 16.5L46.5 25.5M25.5 46.5L16.5 55.5M33 12C33 12.7956 33.3161 13.5587 33.8787 14.1213C34.4413 14.6839 35.2044 15 36 15C36.7956 15 37.5587 14.6839 38.1213 14.1213C38.6839 13.5587 39 12.7956 39 12C39 11.2044 38.6839 10.4413 38.1213 9.87868C37.5587 9.31607 36.7956 9 36 9C35.2044 9 34.4413 9.31607 33.8787 9.87868C33.3161 10.4413 33 11.2044 33 12ZM9 36C9 36.7956 9.31607 37.5587 9.87868 38.1213C10.4413 38.6839 11.2044 39 12 39C12.7956 39 13.5587 38.6839 14.1213 38.1213C14.6839 37.5587 15 36.7956 15 36C15 35.2044 14.6839 34.4413 14.1213 33.8787C13.5587 33.3161 12.7956 33 12 33C11.2044 33 10.4413 33.3161 9.87868 33.8787C9.31607 34.4413 9 35.2044 9 36ZM57 36C57 36.7956 57.3161 37.5587 57.8787 38.1213C58.4413 38.6839 59.2044 39 60 39C60.7956 39 61.5587 38.6839 62.1213 38.1213C62.6839 37.5587 63 36.7956 63 36C63 35.2044 62.6839 34.4413 62.1213 33.8787C61.5587 33.3161 60.7956 33 60 33C59.2044 33 58.4413 33.3161 57.8787 33.8787C57.3161 34.4413 57 35.2044 57 36ZM33 60C33 60.7956 33.3161 61.5587 33.8787 62.1213C34.4413 62.6839 35.2044 63 36 63C36.7956 63 37.5587 62.6839 38.1213 62.1213C38.6839 61.5587 39 60.7956 39 60C39 59.2044 38.6839 58.4413 38.1213 57.8787C37.5587 57.3161 36.7956 57 36 57C35.2044 57 34.4413 57.3161 33.8787 57.8787C33.3161 58.4413 33 59.2044 33 60Z" stroke="#7DA1BB" stroke-width="6" stroke-linecap="round" stroke-linejoin="round"/>
</svg>
